<svg xmlns="http://www.w3.org/2000/svg"  viewBox="0 0 40 40" width="160px" height="160px"><path fill="#dcd5f2" d="M7.794,38.493c-1.693,0-3.281-0.663-4.473-1.866c-2.441-2.466-2.422-6.459,0.044-8.9l15.07-14.909 l8.857,8.945l-15.07,14.909C11.036,37.846,9.463,38.493,7.794,38.493L7.794,38.493z M7.999,28.5c-1.92,0-3.49,1.562-3.499,3.483 c-0.009,1.93,1.554,3.507,3.482,3.517c1.938,0,3.509-1.562,3.518-3.483c0.009-1.93-1.554-3.507-3.482-3.517H7.999z"/><path fill="#8b75a1" d="M18.432,13.524l8.153,8.234L11.87,36.316c-1.092,1.081-2.54,1.677-4.076,1.677 c-1.559,0-3.021-0.61-4.117-1.717c-2.248-2.27-2.23-5.946,0.04-8.193L18.432,13.524 M7.998,36H8c2.195,0,3.989-1.786,4-3.98 c0.011-2.206-1.775-4.009-4-4.02c-2.195,0-3.989,1.786-4,3.98C3.989,34.186,5.775,35.989,7.981,36L7.998,36 M18.44,12.111 L3.014,27.371c-2.666,2.64-2.687,6.942-0.047,9.608c1.328,1.342,3.078,2.014,4.828,2.014c1.728,0,3.455-0.655,4.78-1.966L28,21.766 L18.44,12.111L18.44,12.111z M8,35c-0.005,0-0.01,0-0.015,0C6.328,34.992,4.992,33.642,5,31.985C5.008,30.333,6.35,29,8,29 c0.005,0,0.01,0,0.015,0c1.657,0.008,2.993,1.358,2.985,3.015C10.992,33.666,9.65,35,8,35L8,35z"/><g><path fill="#dcd5f2" d="M29.284,23.537c-3.154,0-6.398-1.448-8.898-3.973c-4.504-4.549-5.191-11.197-1.532-14.82 c1.955-1.936,5.36-3.236,8.475-3.236c1.282,0,2.452,0.209,3.487,0.622L23.428,9.45l1.82,5.291l5.274,1.874l7.386-7.32 c1.541,3.975-0.103,9.359-2.718,11.948C33.674,22.744,31.632,23.537,29.284,23.537L29.284,23.537z"/><path fill="#8b75a1" d="M27.328,2.007c0.92,0,1.777,0.112,2.562,0.335l-6.591,6.532l-0.446,0.442l0.204,0.594l1.639,4.766 l0.157,0.456l0.454,0.161l4.751,1.688l0.592,0.21l0.446-0.442l6.592-6.532c1.024,3.694-0.508,8.352-2.851,10.671 c-1.421,1.407-3.341,2.15-5.554,2.15c-3.023,0-6.137-1.394-8.544-3.825c-2.115-2.136-3.426-4.802-3.692-7.506 c-0.259-2.627,0.507-4.974,2.157-6.607C21.073,3.25,24.337,2.007,27.328,2.007 M27.329,1.007c-3.334,0-6.819,1.393-8.827,3.381 c-3.861,3.823-3.177,10.775,1.529,15.527c2.685,2.712,6.1,4.121,9.254,4.121c2.374,0,4.599-0.798,6.257-2.439 c2.933-2.905,4.614-8.991,2.531-13.17l-7.679,7.61l-4.751-1.688l-1.639-4.766l7.679-7.61C30.37,1.304,28.865,1.008,27.329,1.007 L27.329,1.007z"/></g></svg>