<svg xmlns="http://www.w3.org/2000/svg"  viewBox="0 0 40 40" width="160px" height="160px"><path fill="none" stroke="#66798f" stroke-miterlimit="10" stroke-width="2" d="M30,17.714c0,0,0-5.306,0-5.714	c0-5.523-4.477-10-10-10S10,6.477,10,12c0,0.408,0,5.714,0,5.714"/><path fill="#f5ce85" d="M2.5,37.5V19c0-1.93,1.57-3.5,3.5-3.5h28c1.93,0,3.5,1.57,3.5,3.5v18.5H2.5z"/><path fill="#967a44" d="M34,16c1.654,0,3,1.346,3,3v18H3V19c0-1.654,1.346-3,3-3H34 M34,15H6c-2.209,0-4,1.791-4,4v19h36V19 C38,16.791,36.209,15,34,15L34,15z"/><path fill="#ffeea3" d="M3 31H37V34H3zM3 25H37V28H3zM3 19H37V22H3z"/></svg>